<?xml version="1.0" standalone="no"?>
<!DOCTYPE svg PUBLIC "-//W3C//DTD SVG 20010904//EN"
 "http://www.w3.org/TR/2001/REC-SVG-20010904/DTD/svg10.dtd">
<svg version="1.0" xmlns="http://www.w3.org/2000/svg"
 width="500.000000pt" height="500.000000pt" viewBox="0 0 500.000000 500.000000"
 preserveAspectRatio="xMidYMid meet">
<metadata>
Created by potrace 1.11, written by Peter Selinger 2001-2013
</metadata>
<g transform="translate(0.000000,500.000000) scale(0.100000,-0.100000)"
fill="#000000" stroke="none">
<path d="M0 2500 l0 -2500 2500 0 2500 0 0 2500 0 2500 -2500 0 -2500 0 0
-2500z m4725 0 l0 -2225 -2225 0 -2225 0 -3 2215 c-1 1218 0 2221 3 2228 3 10
454 12 2227 10 l2223 -3 0 -2225z"/>
<path d="M2120 3525 l0 -615 105 0 105 0 0 173 1 172 87 92 87 93 200 -265
200 -265 129 0 128 0 -24 33 c-14 17 -110 149 -213 292 -104 143 -205 283
-226 311 l-38 51 245 266 c134 146 244 268 244 271 0 3 -60 6 -132 6 l-133 0
-275 -295 -275 -294 -3 294 -2 295 -105 0 -105 0 0 -615z"/>
<path d="M780 1706 l0 -616 273 0 c227 0 287 3 364 19 235 49 391 195 449 421
23 87 23 263 0 350 -43 168 -139 287 -288 359 -137 65 -194 74 -515 79 l-283
4 0 -616z m617 386 c175 -56 257 -161 270 -347 13 -189 -54 -333 -187 -400
-83 -42 -160 -55 -332 -55 l-158 0 0 416 0 417 173 -6 c133 -4 186 -9 234 -25z"/>
<path d="M2562 2303 c-15 -27 -532 -1203 -532 -1208 0 -3 51 -5 113 -5 l113 0
58 135 59 135 306 0 306 0 59 -135 59 -135 114 0 c62 0 113 1 113 3 0 2 -121
278 -269 613 l-268 609 -111 3 c-98 2 -112 1 -120 -15z m227 -498 c57 -130
101 -238 99 -241 -3 -2 -99 -3 -215 -2 l-209 3 104 238 c58 130 108 237 111
237 3 0 53 -106 110 -235z"/>
<path d="M3430 2220 l0 -100 185 0 185 0 0 -515 0 -515 110 0 110 0 0 515 0
515 185 0 186 0 -3 98 -3 97 -477 3 -478 2 0 -100z"/>
</g>
</svg>
